# xmcd
#
# Track frame offsets:
#	150
#	16341
#	38164
#	58599
#	72489
#	86393
#	101414
#	117870
#	130797
#	142934
#	155486
#	168579
#	181187
#	192354
#	204092
#	221829
#	232190
#	252292
#	262743
#	274853
#	285458
#
# Disc length: 4030
#
# Revision: 1
# Processed by: cddbd v1.5.1PL0 Copyright (c) Steve Scherf et al.
# Submitted via: OrangeCD 5.2
# Normalized: r0:DSETVAR1
#
DISCID=280fbc15
DTITLE=Various Artist - HMV Easy - The Linedance Collection
DYEAR=2001
DGENRE=Country
TTITLE0=Lacy J Dalton - Black Coffee
TTITLE1=The Charlie Daniels Band - Tennessee Two Step
TTITLE2=Asleep At The Wheel - Lay Down Sally
TTITLE3=Larry Gatlin - Boogie and Beethoven
TTITLE4=Jo El Sonnier - All American Saturday Night
TTITLE5=Suzy Bogguss - No Way Out
TTITLE6=Keith Urban - It's A Love Thing
TTITLE7=Julie Reeves - Party Down
TTITLE8=Sharon B - Blue Finger Lou
TTITLE9=Glen Campbell - Southern Nights
TTITLE10=Trace Adkins - See Jane Run
TTITLE11=Deana Carter - You Still Shake Me
TTITLE12=Chris LeDoux - Under This Old Hat
TTITLE13=Wild Rose - Go Down Swingin'
TTITLE14=Eddy Raven - Island
TTITLE15=Noah Gordon - I Need A Break
TTITLE16=Steve Wariner - Two Teardrops
TTITLE17=Mel McDaniel - Louisiana Saturday Night
TTITLE18=Joni Harms - Tear It Up
TTITLE19=Eddie Rabbitt - Two Dollars In The Jukebox
TTITLE20=Billy Dean - That Girl's Been Spying On Me
EXTD=
EXTT0=
EXTT1=
EXTT2=
EXTT3=
EXTT4=
EXTT5=
EXTT6=
EXTT7=
EXTT8=
EXTT9=
EXTT10=
EXTT11=
EXTT12=
EXTT13=
EXTT14=
EXTT15=
EXTT16=
EXTT17=
EXTT18=
EXTT19=
EXTT20=
PLAYORDER=
